<svg xmlns="http://www.w3.org/2000/svg" version="1.0" viewBox="13.89 140.39 346.99 59.25"><defs><clipPath id="a"><path d="M 303.875 143 L 360 143 L 360 199.644531 L 303.875 199.644531 Z M 303.875 143"/></clipPath><clipPath id="b"><path d="M 315 140.394531 L 360.875 140.394531 L 360.875 188 L 315 188 Z M 315 140.394531"/></clipPath></defs><g clip-path="url(#a)"><path d="M 331.714844 143.691406 C 316.382812 143.691406 303.902344 156.242188 303.902344 171.660156 C 303.902344 187.074219 316.382812 199.628906 331.714844 199.628906 C 347.046875 199.628906 359.527344 187.074219 359.527344 171.660156 C 359.527344 164.996094 357.285156 159.035156 353.476562 154.152344 L 350.859375 157.273438 C 354.175781 161.382812 355.476562 165.949219 355.476562 171.660156 C 355.476562 184.871094 344.851562 195.546875 331.714844 195.546875 C 318.578125 195.546875 307.953125 184.871094 307.953125 171.660156 C 307.953125 158.449219 318.578125 147.765625 331.714844 147.765625 C 335.878906 147.765625 338.992188 148.367188 342.390625 150.253906 L 344.878906 146.96875 C 340.898438 144.757812 336.574219 143.691406 331.714844 143.691406 Z M 331.714844 143.691406" fill-rule="evenodd"/></g><g clip-path="url(#b)"><path d="M 321.421875 167.980469 C 322.542969 167.980469 323.390625 168.90625 323.964844 170.757812 C 325.117188 174.226562 325.9375 175.960938 326.425781 175.960938 C 326.796875 175.960938 327.1875 175.671875 327.589844 175.09375 C 335.671875 162.082031 343.148438 151.554688 350.019531 143.515625 C 351.804688 141.433594 354.636719 140.394531 358.519531 140.394531 C 359.4375 140.394531 360.058594 140.480469 360.375 140.652344 C 360.6875 140.828125 360.847656 141.042969 360.847656 141.304688 C 360.847656 141.710938 360.371094 142.503906 359.425781 143.691406 C 348.324219 157.109375 338.027344 171.277344 328.539062 186.199219 C 327.875 187.242188 326.523438 187.761719 324.484375 187.761719 C 322.414062 187.761719 321.191406 187.675781 320.816406 187.5 C 319.839844 187.066406 318.6875 184.855469 317.367188 180.863281 C 315.871094 176.441406 315.121094 173.664062 315.121094 172.535156 C 315.121094 171.320312 316.128906 170.148438 318.140625 169.023438 C 319.378906 168.328125 320.472656 167.980469 321.421875 167.980469"/></g><g><g><g><path d="M 39.503906 -54.078125 L 16.875 -34.902344 L 16.875 -54.078125 L 4.601562 -54.078125 L 4.601562 0 L 16.875 0 L 16.875 -19.097656 L 39.503906 0 L 57.453125 0 L 24.851562 -27 L 57.453125 -54.078125 Z M 39.503906 -54.078125" transform="translate(9.288 197.485)"/></g></g></g><g><g><g><path d="M 3.835938 -27.078125 C 3.835938 -11.277344 14.265625 0.765625 31.449219 0.765625 C 48.554688 0.765625 58.984375 -11.277344 58.984375 -27.078125 C 58.984375 -42.800781 48.554688 -54.84375 31.449219 -54.84375 C 14.265625 -54.84375 3.835938 -42.800781 3.835938 -27.078125 Z M 16.109375 -27.078125 C 16.109375 -37.433594 21.246094 -44.105469 31.449219 -44.105469 C 41.652344 -44.105469 46.714844 -37.433594 46.714844 -27.078125 C 46.714844 -16.644531 41.652344 -9.972656 31.449219 -9.972656 C 21.246094 -9.972656 16.109375 -16.644531 16.109375 -27.078125 Z M 16.109375 -27.078125" transform="translate(68.27 197.485)"/></g></g></g><g><g><g><path d="M 24.546875 -54.078125 L 4.601562 -54.078125 L 4.601562 0 L 24.546875 0 C 38.964844 0 54 -3.757812 54 -27.078125 C 54 -50.316406 38.964844 -54.078125 24.546875 -54.078125 Z M 16.875 -10.738281 L 16.875 -43.339844 L 24.546875 -43.339844 C 34.132812 -43.339844 41.726562 -42.570312 41.726562 -27.078125 C 41.726562 -11.503906 34.132812 -10.738281 24.546875 -10.738281 Z M 16.875 -10.738281" transform="translate(131.087 197.485)"/></g></g></g><g><g><g><path d="M 40.652344 -54.078125 L 3.835938 -54.078125 L 3.835938 -43.339844 L 16.109375 -43.339844 L 16.109375 -10.738281 L 3.835938 -10.738281 L 3.835938 0 L 40.652344 0 L 40.652344 -10.738281 L 28.378906 -10.738281 L 28.378906 -43.339844 L 40.652344 -43.339844 Z M 40.652344 -54.078125" transform="translate(188.918 197.485)"/></g></g></g><g><g><g><path d="M 3.835938 -27.078125 C 3.835938 -10.507812 12.734375 0.765625 28.917969 0.765625 C 43.796875 0.765625 50.472656 -10.125 50.546875 -27.078125 L 53.617188 -27.078125 L 51.316406 -18.640625 L 51.316406 0 L 63.589844 0 L 63.589844 -23.625 C 63.589844 -27.84375 61.285156 -30.144531 57.066406 -30.144531 L 28.839844 -30.144531 L 28.839844 -20.941406 L 41.34375 -20.941406 C 41.34375 -13.652344 36.742188 -9.972656 29.378906 -9.972656 C 20.480469 -9.972656 16.109375 -15.109375 16.109375 -27.078125 C 16.109375 -38.964844 21.628906 -44.105469 31.066406 -44.105469 C 39.195312 -44.105469 43.261719 -41.113281 44.488281 -34.746094 L 56.761719 -34.746094 C 55.152344 -46.558594 44.640625 -54.84375 31.066406 -54.84375 C 15.417969 -54.84375 3.835938 -43.566406 3.835938 -27.078125 Z M 3.835938 -27.078125" transform="translate(233.404 197.485)"/></g></g></g></svg>