<svg xmlns="http://www.w3.org/2000/svg" width="375" viewBox="0 0 375 375" height="375" version="1.0"><defs><clipPath id="a"><path d="M 5 27 L 174 27 L 174 348.882812 L 5 348.882812 Z M 5 27"/></clipPath></defs><g clip-path="url(#a)"><path d="M 163.269531 29.023438 C 162.519531 28.734375 161.753906 28.507812 160.96875 28.335938 C 160.183594 28.164062 159.394531 28.054688 158.59375 28 C 157.792969 27.949219 156.992188 27.957031 156.191406 28.027344 C 155.394531 28.097656 154.601562 28.226562 153.824219 28.414062 C 153.042969 28.601562 152.28125 28.847656 151.539062 29.152344 C 150.796875 29.453125 150.078125 29.8125 149.390625 30.222656 C 148.699219 30.632812 148.046875 31.09375 147.425781 31.601562 C 146.804688 32.113281 146.226562 32.667969 145.691406 33.265625 L 78.496094 108.007812 L 21.6875 108.007812 C 21.164062 108.007812 20.640625 108.03125 20.121094 108.085938 C 19.597656 108.136719 19.082031 108.210938 18.570312 108.316406 C 18.054688 108.417969 17.546875 108.542969 17.046875 108.695312 C 16.546875 108.847656 16.054688 109.023438 15.570312 109.226562 C 15.085938 109.425781 14.613281 109.648438 14.152344 109.898438 C 13.691406 110.144531 13.242188 110.414062 12.808594 110.703125 C 12.375 110.996094 11.953125 111.308594 11.550781 111.640625 C 11.144531 111.972656 10.757812 112.324219 10.386719 112.695312 C 10.015625 113.066406 9.664062 113.453125 9.332031 113.859375 C 9 114.265625 8.691406 114.683594 8.398438 115.121094 C 8.109375 115.554688 7.839844 116.003906 7.59375 116.46875 C 7.347656 116.929688 7.125 117.402344 6.921875 117.886719 C 6.722656 118.371094 6.546875 118.863281 6.394531 119.367188 C 6.242188 119.867188 6.117188 120.375 6.011719 120.890625 C 5.910156 121.402344 5.835938 121.921875 5.785156 122.445312 C 5.730469 122.964844 5.707031 123.488281 5.707031 124.011719 L 5.707031 260.054688 C 5.707031 260.578125 5.730469 261.101562 5.785156 261.625 C 5.835938 262.144531 5.910156 262.664062 6.011719 263.175781 C 6.117188 263.691406 6.242188 264.199219 6.394531 264.699219 C 6.546875 265.203125 6.722656 265.695312 6.921875 266.179688 C 7.125 266.664062 7.347656 267.136719 7.59375 267.597656 C 7.839844 268.0625 8.109375 268.511719 8.398438 268.945312 C 8.691406 269.382812 9 269.800781 9.332031 270.207031 C 9.664062 270.613281 10.015625 271 10.386719 271.371094 C 10.757812 271.742188 11.144531 272.09375 11.550781 272.425781 C 11.953125 272.757812 12.375 273.070312 12.808594 273.363281 C 13.242188 273.652344 13.691406 273.921875 14.152344 274.167969 C 14.613281 274.417969 15.085938 274.640625 15.570312 274.839844 C 16.054688 275.042969 16.546875 275.21875 17.046875 275.371094 C 17.546875 275.523438 18.054688 275.648438 18.570312 275.75 C 19.082031 275.855469 19.597656 275.929688 20.121094 275.980469 C 20.640625 276.035156 21.164062 276.058594 21.6875 276.058594 L 78.972656 276.058594 L 146.171875 343.359375 C 146.726562 343.921875 147.316406 344.4375 147.949219 344.910156 C 148.578125 345.378906 149.242188 345.804688 149.933594 346.179688 C 150.628906 346.550781 151.34375 346.875 152.085938 347.140625 C 152.824219 347.410156 153.582031 347.621094 154.351562 347.777344 C 155.125 347.933594 155.90625 348.03125 156.691406 348.074219 C 157.476562 348.113281 158.261719 348.097656 159.046875 348.019531 C 159.832031 347.945312 160.605469 347.8125 161.367188 347.621094 C 162.132812 347.433594 162.878906 347.1875 163.605469 346.886719 C 164.335938 346.585938 165.035156 346.234375 165.714844 345.828125 C 166.390625 345.425781 167.03125 344.972656 167.640625 344.472656 C 168.25 343.972656 168.820312 343.429688 169.347656 342.847656 C 169.878906 342.261719 170.363281 341.640625 170.800781 340.988281 C 171.238281 340.332031 171.625 339.648438 171.960938 338.933594 C 172.296875 338.222656 172.582031 337.488281 172.808594 336.734375 C 173.039062 335.976562 173.210938 335.210938 173.324219 334.429688 C 173.4375 333.648438 173.496094 332.867188 173.496094 332.078125 L 173.496094 43.988281 C 173.496094 43.183594 173.4375 42.382812 173.320312 41.585938 C 173.203125 40.789062 173.023438 40.007812 172.785156 39.238281 C 172.550781 38.46875 172.257812 37.722656 171.90625 36.996094 C 171.558594 36.273438 171.15625 35.578125 170.703125 34.914062 C 170.25 34.25 169.746094 33.625 169.199219 33.035156 C 168.652344 32.445312 168.0625 31.902344 167.433594 31.402344 C 166.800781 30.902344 166.136719 30.453125 165.441406 30.054688 C 164.742188 29.65625 164.019531 29.3125 163.269531 29.023438 Z M 141.535156 293.425781 L 96.871094 248.691406 C 95.375 247.203125 93.648438 246.054688 91.699219 245.253906 C 89.746094 244.449219 87.714844 244.046875 85.605469 244.050781 L 37.667969 244.050781 L 37.667969 140.015625 L 85.605469 140.015625 C 86.726562 140.019531 87.835938 139.90625 88.933594 139.675781 C 90.03125 139.445312 91.09375 139.101562 92.121094 138.644531 C 93.144531 138.191406 94.113281 137.632812 95.019531 136.976562 C 95.929688 136.316406 96.761719 135.570312 97.511719 134.734375 L 141.535156 85.679688 L 141.535156 293.746094 Z M 141.535156 293.425781"/></g><path d="M 265.699219 75.996094 C 265.328125 75.628906 264.941406 75.277344 264.535156 74.945312 C 264.128906 74.613281 263.707031 74.300781 263.269531 74.011719 C 262.835938 73.722656 262.382812 73.453125 261.921875 73.207031 C 261.460938 72.960938 260.984375 72.738281 260.5 72.539062 C 260.015625 72.339844 259.523438 72.164062 259.019531 72.011719 C 258.519531 71.863281 258.011719 71.734375 257.496094 71.636719 C 256.984375 71.535156 256.464844 71.457031 255.941406 71.410156 C 255.421875 71.359375 254.898438 71.335938 254.375 71.335938 C 253.851562 71.339844 253.328125 71.367188 252.808594 71.417969 C 252.285156 71.472656 251.769531 71.550781 251.253906 71.652344 C 250.742188 71.757812 250.234375 71.886719 249.734375 72.042969 C 249.230469 72.195312 248.738281 72.375 248.257812 72.574219 C 247.773438 72.777344 247.300781 73.003906 246.839844 73.253906 C 246.378906 73.5 245.929688 73.773438 245.496094 74.066406 C 245.0625 74.359375 244.640625 74.671875 244.238281 75.007812 C 243.835938 75.339844 243.449219 75.695312 243.078125 76.066406 C 242.710938 76.4375 242.359375 76.828125 242.027344 77.234375 C 241.699219 77.644531 241.386719 78.066406 241.097656 78.503906 C 240.808594 78.941406 240.539062 79.390625 240.296875 79.855469 C 240.050781 80.316406 239.828125 80.792969 239.628906 81.277344 C 239.429688 81.761719 239.257812 82.257812 239.105469 82.761719 C 238.957031 83.261719 238.832031 83.773438 238.730469 84.289062 C 238.628906 84.800781 238.554688 85.320312 238.507812 85.84375 C 238.457031 86.367188 238.433594 86.890625 238.433594 87.414062 C 238.4375 87.9375 238.464844 88.460938 238.519531 88.984375 C 238.570312 89.507812 238.652344 90.023438 238.753906 90.539062 C 238.859375 91.054688 238.988281 91.5625 239.144531 92.0625 C 239.296875 92.5625 239.476562 93.058594 239.679688 93.542969 C 239.878906 94.023438 240.105469 94.496094 240.355469 94.960938 C 240.605469 95.421875 240.875 95.871094 241.167969 96.304688 C 241.460938 96.738281 241.773438 97.160156 242.109375 97.5625 C 242.445312 97.96875 242.796875 98.355469 243.167969 98.722656 C 244.644531 100.1875 246.082031 101.683594 247.480469 103.21875 C 248.882812 104.75 250.242188 106.316406 251.566406 107.917969 C 252.890625 109.519531 254.171875 111.152344 255.414062 112.816406 C 256.65625 114.480469 257.859375 116.175781 259.015625 117.898438 C 260.175781 119.621094 261.292969 121.375 262.363281 123.152344 C 263.4375 124.929688 264.464844 126.734375 265.449219 128.566406 C 266.433594 130.394531 267.371094 132.246094 268.261719 134.125 C 269.152344 136 270 137.898438 270.796875 139.816406 C 271.597656 141.734375 272.347656 143.667969 273.050781 145.625 C 273.753906 147.582031 274.410156 149.550781 275.015625 151.539062 C 275.621094 153.527344 276.175781 155.527344 276.683594 157.542969 C 277.191406 159.558594 277.648438 161.585938 278.054688 163.621094 C 278.464844 165.660156 278.820312 167.707031 279.125 169.761719 C 279.433594 171.816406 279.6875 173.878906 279.890625 175.945312 C 280.097656 178.015625 280.25 180.085938 280.351562 182.160156 C 280.457031 184.238281 280.507812 186.3125 280.507812 188.390625 C 280.507812 190.46875 280.457031 192.546875 280.351562 194.621094 C 280.25 196.699219 280.097656 198.769531 279.890625 200.835938 C 279.6875 202.90625 279.433594 204.96875 279.125 207.023438 C 278.820312 209.078125 278.464844 211.125 278.054688 213.164062 C 277.648438 215.199219 277.191406 217.226562 276.683594 219.242188 C 276.175781 221.257812 275.621094 223.257812 275.015625 225.246094 C 274.410156 227.234375 273.753906 229.203125 273.050781 231.160156 C 272.347656 233.113281 271.597656 235.050781 270.796875 236.96875 C 270 238.886719 269.152344 240.785156 268.261719 242.660156 C 267.371094 244.535156 266.433594 246.390625 265.449219 248.21875 C 264.464844 250.046875 263.4375 251.851562 262.363281 253.632812 C 261.292969 255.410156 260.175781 257.160156 259.015625 258.886719 C 257.859375 260.609375 256.65625 262.304688 255.414062 263.96875 C 254.171875 265.632812 252.890625 267.265625 251.566406 268.863281 C 250.242188 270.464844 248.882812 272.03125 247.480469 273.566406 C 246.082031 275.101562 244.644531 276.597656 243.167969 278.058594 C 242.695312 278.398438 242.242188 278.765625 241.8125 279.152344 C 241.378906 279.542969 240.96875 279.957031 240.578125 280.390625 C 240.191406 280.824219 239.828125 281.277344 239.492188 281.753906 C 239.152344 282.226562 238.839844 282.71875 238.554688 283.226562 C 238.273438 283.734375 238.015625 284.257812 237.789062 284.792969 C 237.558594 285.328125 237.363281 285.875 237.195312 286.433594 C 237.027344 286.992188 236.886719 287.554688 236.78125 288.128906 C 236.675781 288.703125 236.601562 289.277344 236.558594 289.859375 C 236.511719 290.441406 236.5 291.023438 236.519531 291.605469 C 236.542969 292.1875 236.59375 292.765625 236.675781 293.34375 C 236.757812 293.921875 236.871094 294.492188 237.019531 295.054688 C 237.164062 295.621094 237.339844 296.175781 237.542969 296.71875 C 237.75 297.265625 237.984375 297.796875 238.25 298.316406 C 238.511719 298.835938 238.804688 299.339844 239.121094 299.824219 C 239.441406 300.3125 239.785156 300.78125 240.15625 301.230469 C 240.527344 301.683594 240.917969 302.109375 241.335938 302.515625 C 241.75 302.925781 242.1875 303.308594 242.648438 303.664062 C 243.105469 304.023438 243.582031 304.359375 244.078125 304.664062 C 244.570312 304.972656 245.082031 305.25 245.605469 305.5 C 246.132812 305.753906 246.667969 305.972656 247.21875 306.167969 C 247.765625 306.359375 248.324219 306.519531 248.890625 306.652344 C 249.457031 306.78125 250.03125 306.882812 250.609375 306.953125 C 251.1875 307.019531 251.765625 307.058594 252.347656 307.0625 C 252.929688 307.066406 253.507812 307.042969 254.089844 306.984375 C 254.667969 306.925781 255.242188 306.835938 255.808594 306.714844 C 256.378906 306.59375 256.941406 306.441406 257.492188 306.257812 C 258.046875 306.078125 258.585938 305.863281 259.117188 305.625 C 259.644531 305.382812 260.160156 305.113281 260.660156 304.816406 C 261.160156 304.515625 261.640625 304.191406 262.105469 303.84375 C 262.570312 303.492188 263.015625 303.117188 263.441406 302.71875 C 263.863281 302.316406 264.265625 301.898438 264.640625 301.453125 C 265.019531 301.011719 265.371094 300.546875 265.699219 300.066406 C 267.535156 298.234375 269.324219 296.359375 271.066406 294.441406 C 272.804688 292.519531 274.5 290.558594 276.144531 288.554688 C 277.792969 286.550781 279.386719 284.511719 280.933594 282.429688 C 282.476562 280.347656 283.972656 278.226562 285.414062 276.074219 C 286.855469 273.917969 288.242188 271.726562 289.574219 269.503906 C 290.910156 267.28125 292.1875 265.027344 293.410156 262.738281 C 294.632812 260.453125 295.800781 258.136719 296.910156 255.792969 C 298.019531 253.449219 299.070312 251.078125 300.0625 248.683594 C 301.054688 246.289062 301.988281 243.867188 302.863281 241.425781 C 303.738281 238.984375 304.550781 236.523438 305.304688 234.039062 C 306.054688 231.558594 306.75 229.058594 307.378906 226.542969 C 308.007812 224.027344 308.578125 221.496094 309.082031 218.953125 C 309.589844 216.410156 310.035156 213.855469 310.414062 211.289062 C 310.796875 208.722656 311.113281 206.148438 311.367188 203.566406 C 311.621094 200.988281 311.8125 198.398438 311.941406 195.808594 C 312.066406 193.21875 312.128906 190.625 312.128906 188.03125 C 312.128906 185.4375 312.066406 182.84375 311.941406 180.253906 C 311.8125 177.664062 311.621094 175.078125 311.367188 172.496094 C 311.113281 169.914062 310.796875 167.339844 310.414062 164.773438 C 310.035156 162.207031 309.589844 159.652344 309.082031 157.109375 C 308.578125 154.566406 308.007812 152.035156 307.378906 149.519531 C 306.75 147.003906 306.054688 144.503906 305.304688 142.023438 C 304.550781 139.542969 303.738281 137.078125 302.863281 134.636719 C 301.988281 132.195312 301.054688 129.777344 300.0625 127.378906 C 299.070312 124.984375 298.019531 122.613281 296.910156 120.269531 C 295.800781 117.925781 294.632812 115.613281 293.410156 113.324219 C 292.1875 111.039062 290.910156 108.78125 289.574219 106.558594 C 288.242188 104.335938 286.855469 102.144531 285.414062 99.992188 C 283.972656 97.835938 282.476562 95.71875 280.933594 93.636719 C 279.386719 91.554688 277.792969 89.511719 276.144531 87.507812 C 274.5 85.503906 272.804688 83.542969 271.066406 81.625 C 269.324219 79.703125 267.535156 77.828125 265.699219 75.996094 Z M 265.699219 75.996094"/><path d="M 308.6875 32.945312 C 308.324219 32.542969 307.941406 32.164062 307.539062 31.800781 C 307.136719 31.441406 306.71875 31.101562 306.28125 30.78125 C 305.847656 30.464844 305.394531 30.167969 304.929688 29.894531 C 304.464844 29.621094 303.984375 29.375 303.492188 29.148438 C 303.003906 28.925781 302.5 28.726562 301.992188 28.554688 C 301.480469 28.378906 300.960938 28.230469 300.433594 28.113281 C 299.90625 27.992188 299.378906 27.898438 298.839844 27.828125 C 298.304688 27.761719 297.769531 27.722656 297.230469 27.710938 C 296.6875 27.699219 296.148438 27.714844 295.613281 27.757812 C 295.074219 27.796875 294.539062 27.867188 294.007812 27.964844 C 293.476562 28.0625 292.953125 28.183594 292.433594 28.335938 C 291.914062 28.484375 291.40625 28.660156 290.90625 28.863281 C 290.402344 29.0625 289.914062 29.289062 289.4375 29.539062 C 288.957031 29.792969 288.496094 30.066406 288.042969 30.367188 C 287.59375 30.664062 287.160156 30.984375 286.742188 31.328125 C 286.324219 31.667969 285.925781 32.03125 285.542969 32.414062 C 285.164062 32.796875 284.800781 33.199219 284.460938 33.617188 C 284.121094 34.039062 283.804688 34.472656 283.507812 34.925781 C 283.210938 35.378906 282.9375 35.84375 282.6875 36.324219 C 282.441406 36.800781 282.214844 37.292969 282.015625 37.796875 C 281.816406 38.296875 281.640625 38.808594 281.496094 39.328125 C 281.347656 39.847656 281.226562 40.375 281.132812 40.90625 C 281.035156 41.441406 280.96875 41.976562 280.929688 42.515625 C 280.886719 43.054688 280.875 43.59375 280.890625 44.132812 C 280.902344 44.675781 280.945312 45.210938 281.015625 45.75 C 281.082031 46.285156 281.179688 46.816406 281.300781 47.34375 C 281.421875 47.871094 281.570312 48.386719 281.746094 48.898438 C 281.921875 49.410156 282.121094 49.914062 282.347656 50.402344 C 282.574219 50.894531 282.824219 51.375 283.097656 51.839844 C 283.371094 52.304688 283.667969 52.753906 283.988281 53.191406 C 284.308594 53.625 284.648438 54.042969 285.011719 54.445312 C 285.371094 54.847656 285.753906 55.230469 286.15625 55.589844 C 288.332031 57.75 290.453125 59.960938 292.519531 62.226562 C 294.585938 64.492188 296.597656 66.804688 298.550781 69.167969 C 300.503906 71.53125 302.398438 73.945312 304.230469 76.402344 C 306.066406 78.859375 307.839844 81.359375 309.550781 83.90625 C 311.261719 86.449219 312.90625 89.035156 314.492188 91.664062 C 316.074219 94.289062 317.589844 96.953125 319.042969 99.65625 C 320.496094 102.359375 321.878906 105.09375 323.195312 107.863281 C 324.515625 110.632812 325.761719 113.4375 326.941406 116.269531 C 328.121094 119.101562 329.226562 121.960938 330.265625 124.847656 C 331.304688 127.734375 332.269531 130.644531 333.164062 133.578125 C 334.058594 136.511719 334.878906 139.46875 335.628906 142.441406 C 336.378906 145.417969 337.054688 148.410156 337.65625 151.417969 C 338.253906 154.425781 338.78125 157.449219 339.234375 160.484375 C 339.6875 163.519531 340.0625 166.5625 340.367188 169.617188 C 340.667969 172.667969 340.894531 175.726562 341.046875 178.792969 C 341.195312 181.855469 341.273438 184.921875 341.273438 187.992188 C 341.273438 191.058594 341.195312 194.125 341.046875 197.191406 C 340.894531 200.253906 340.667969 203.316406 340.367188 206.367188 C 340.0625 209.421875 339.6875 212.464844 339.234375 215.5 C 338.78125 218.535156 338.253906 221.554688 337.65625 224.566406 C 337.054688 227.574219 336.378906 230.566406 335.628906 233.542969 C 334.878906 236.515625 334.058594 239.472656 333.164062 242.40625 C 332.269531 245.339844 331.304688 248.25 330.265625 251.136719 C 329.226562 254.023438 328.121094 256.882812 326.941406 259.714844 C 325.761719 262.546875 324.515625 265.347656 323.195312 268.121094 C 321.878906 270.890625 320.496094 273.625 319.042969 276.328125 C 317.589844 279.03125 316.074219 281.695312 314.492188 284.320312 C 312.90625 286.945312 311.261719 289.53125 309.550781 292.078125 C 307.839844 294.625 306.066406 297.125 304.230469 299.582031 C 302.398438 302.039062 300.503906 304.449219 298.550781 306.816406 C 296.597656 309.179688 294.585938 311.492188 292.519531 313.757812 C 290.453125 316.023438 288.332031 318.234375 286.15625 320.394531 C 285.78125 320.761719 285.429688 321.148438 285.097656 321.554688 C 284.761719 321.957031 284.449219 322.378906 284.15625 322.8125 C 283.867188 323.246094 283.59375 323.695312 283.347656 324.15625 C 283.097656 324.621094 282.871094 325.09375 282.671875 325.574219 C 282.46875 326.058594 282.289062 326.550781 282.136719 327.054688 C 281.984375 327.554688 281.855469 328.0625 281.75 328.578125 C 281.644531 329.089844 281.566406 329.609375 281.515625 330.128906 C 281.460938 330.652344 281.433594 331.175781 281.433594 331.699219 C 281.429688 332.222656 281.453125 332.746094 281.503906 333.269531 C 281.554688 333.792969 281.628906 334.308594 281.726562 334.824219 C 281.828125 335.339844 281.953125 335.847656 282.105469 336.351562 C 282.253906 336.851562 282.429688 337.347656 282.628906 337.832031 C 282.824219 338.316406 283.046875 338.792969 283.292969 339.253906 C 283.539062 339.71875 283.804688 340.167969 284.09375 340.605469 C 284.382812 341.042969 284.695312 341.464844 285.023438 341.871094 C 285.355469 342.277344 285.707031 342.667969 286.074219 343.039062 C 286.445312 343.414062 286.832031 343.765625 287.234375 344.097656 C 287.636719 344.433594 288.054688 344.746094 288.492188 345.039062 C 288.925781 345.332031 289.371094 345.605469 289.832031 345.851562 C 290.292969 346.101562 290.765625 346.328125 291.25 346.53125 C 291.734375 346.730469 292.226562 346.910156 292.726562 347.0625 C 293.226562 347.21875 293.734375 347.347656 294.246094 347.453125 C 294.757812 347.554688 295.277344 347.632812 295.796875 347.6875 C 296.316406 347.742188 296.839844 347.769531 297.363281 347.769531 C 297.886719 347.773438 298.410156 347.75 298.929688 347.699219 C 299.453125 347.648438 299.96875 347.574219 300.484375 347.472656 C 301 347.375 301.507812 347.246094 302.007812 347.097656 C 302.507812 346.945312 303.003906 346.773438 303.488281 346.574219 C 303.972656 346.375 304.445312 346.152344 304.90625 345.90625 C 305.371094 345.660156 305.820312 345.394531 306.257812 345.101562 C 306.691406 344.8125 307.113281 344.503906 307.519531 344.171875 C 307.925781 343.839844 308.316406 343.488281 308.6875 343.121094 C 311.234375 340.589844 313.71875 338 316.140625 335.34375 C 318.558594 332.691406 320.914062 329.980469 323.199219 327.210938 C 325.488281 324.441406 327.703125 321.617188 329.851562 318.738281 C 332 315.859375 334.074219 312.929688 336.078125 309.949219 C 338.082031 306.96875 340.007812 303.9375 341.863281 300.859375 C 343.714844 297.785156 345.492188 294.664062 347.191406 291.5 C 348.894531 288.332031 350.515625 285.128906 352.054688 281.882812 C 353.597656 278.636719 355.058594 275.359375 356.4375 272.039062 C 357.820312 268.722656 359.117188 265.375 360.332031 261.992188 C 361.546875 258.609375 362.679688 255.203125 363.726562 251.765625 C 364.773438 248.328125 365.734375 244.867188 366.609375 241.382812 C 367.488281 237.898438 368.277344 234.390625 368.980469 230.867188 C 369.683594 227.34375 370.300781 223.804688 370.832031 220.25 C 371.359375 216.695312 371.800781 213.132812 372.15625 209.554688 C 372.507812 205.980469 372.773438 202.394531 372.953125 198.804688 C 373.128906 195.21875 373.21875 191.625 373.21875 188.03125 C 373.21875 184.4375 373.128906 180.847656 372.953125 177.257812 C 372.773438 173.667969 372.507812 170.085938 372.15625 166.507812 C 371.800781 162.933594 371.359375 159.367188 370.832031 155.8125 C 370.300781 152.257812 369.683594 148.71875 368.980469 145.195312 C 368.277344 141.671875 367.488281 138.167969 366.609375 134.683594 C 365.734375 131.199219 364.773438 127.738281 363.726562 124.300781 C 362.679688 120.863281 361.546875 117.453125 360.332031 114.070312 C 359.117188 110.691406 357.820312 107.339844 356.4375 104.023438 C 355.058594 100.707031 353.597656 97.425781 352.054688 94.179688 C 350.515625 90.933594 348.894531 87.730469 347.191406 84.566406 C 345.492188 81.402344 343.714844 78.28125 341.863281 75.203125 C 340.007812 72.125 338.082031 69.097656 336.078125 66.117188 C 334.074219 63.132812 332 60.203125 329.851562 57.324219 C 327.703125 54.445312 325.488281 51.621094 323.199219 48.851562 C 320.914062 46.082031 318.558594 43.371094 316.140625 40.71875 C 313.71875 38.066406 311.234375 35.472656 308.6875 32.945312 Z M 308.6875 32.945312"/><path d="M 220.636719 120.492188 C 220.265625 120.121094 219.875 119.769531 219.46875 119.441406 C 219.066406 119.109375 218.644531 118.796875 218.207031 118.507812 C 217.769531 118.21875 217.320312 117.949219 216.859375 117.703125 C 216.394531 117.460938 215.921875 117.238281 215.4375 117.039062 C 214.953125 116.839844 214.460938 116.664062 213.957031 116.515625 C 213.457031 116.363281 212.949219 116.238281 212.433594 116.136719 C 211.921875 116.035156 211.402344 115.960938 210.882812 115.914062 C 210.359375 115.863281 209.839844 115.839844 209.316406 115.839844 C 208.789062 115.84375 208.269531 115.871094 207.746094 115.921875 C 207.226562 115.976562 206.710938 116.054688 206.195312 116.160156 C 205.683594 116.261719 205.175781 116.394531 204.675781 116.546875 C 204.175781 116.699219 203.683594 116.878906 203.199219 117.082031 C 202.71875 117.285156 202.246094 117.507812 201.785156 117.757812 C 201.324219 118.007812 200.875 118.277344 200.441406 118.570312 C 200.007812 118.863281 199.585938 119.175781 199.183594 119.511719 C 198.78125 119.847656 198.394531 120.199219 198.023438 120.570312 C 197.65625 120.941406 197.304688 121.332031 196.976562 121.738281 C 196.644531 122.144531 196.335938 122.566406 196.046875 123.003906 C 195.757812 123.441406 195.488281 123.890625 195.242188 124.355469 C 195 124.820312 194.777344 125.292969 194.578125 125.777344 C 194.378906 126.265625 194.203125 126.757812 194.054688 127.261719 C 193.902344 127.761719 193.777344 128.269531 193.679688 128.785156 C 193.578125 129.300781 193.503906 129.820312 193.453125 130.339844 C 193.402344 130.863281 193.378906 131.386719 193.382812 131.910156 C 193.382812 132.4375 193.410156 132.957031 193.464844 133.480469 C 193.519531 134.003906 193.597656 134.519531 193.699219 135.035156 C 193.804688 135.546875 193.933594 136.054688 194.085938 136.558594 C 194.242188 137.058594 194.417969 137.550781 194.621094 138.035156 C 194.824219 138.519531 195.046875 138.992188 195.296875 139.453125 C 195.546875 139.914062 195.816406 140.363281 196.109375 140.796875 C 196.402344 141.234375 196.714844 141.652344 197.046875 142.058594 C 197.382812 142.460938 197.734375 142.847656 198.105469 143.21875 C 198.84375 143.949219 199.5625 144.699219 200.261719 145.464844 C 200.960938 146.234375 201.644531 147.015625 202.304688 147.816406 C 202.964844 148.617188 203.609375 149.4375 204.230469 150.269531 C 204.851562 151.101562 205.449219 151.949219 206.03125 152.808594 C 206.609375 153.671875 207.167969 154.546875 207.703125 155.4375 C 208.242188 156.328125 208.753906 157.230469 209.246094 158.144531 C 209.738281 159.0625 210.207031 159.988281 210.652344 160.925781 C 211.101562 161.867188 211.523438 162.8125 211.921875 163.773438 C 212.320312 164.734375 212.699219 165.703125 213.050781 166.679688 C 213.402344 167.65625 213.726562 168.644531 214.03125 169.636719 C 214.335938 170.632812 214.613281 171.632812 214.867188 172.640625 C 215.121094 173.648438 215.347656 174.664062 215.550781 175.683594 C 215.753906 176.703125 215.933594 177.726562 216.085938 178.753906 C 216.242188 179.78125 216.367188 180.8125 216.46875 181.847656 C 216.574219 182.882812 216.648438 183.917969 216.699219 184.957031 C 216.753906 185.992188 216.777344 187.03125 216.777344 188.070312 C 216.777344 189.113281 216.753906 190.148438 216.699219 191.1875 C 216.648438 192.226562 216.574219 193.261719 216.46875 194.296875 C 216.367188 195.332031 216.242188 196.363281 216.085938 197.390625 C 215.933594 198.417969 215.753906 199.441406 215.550781 200.460938 C 215.347656 201.480469 215.121094 202.496094 214.867188 203.503906 C 214.613281 204.511719 214.335938 205.511719 214.03125 206.507812 C 213.726562 207.5 213.402344 208.484375 213.050781 209.464844 C 212.699219 210.441406 212.320312 211.410156 211.921875 212.371094 C 211.523438 213.328125 211.101562 214.277344 210.652344 215.21875 C 210.207031 216.15625 209.738281 217.082031 209.246094 217.996094 C 208.753906 218.914062 208.242188 219.816406 207.703125 220.707031 C 207.167969 221.59375 206.609375 222.472656 206.03125 223.332031 C 205.449219 224.195312 204.851562 225.042969 204.230469 225.875 C 203.609375 226.707031 202.964844 227.523438 202.304688 228.324219 C 201.644531 229.125 200.960938 229.910156 200.261719 230.679688 C 199.5625 231.445312 198.84375 232.195312 198.105469 232.925781 C 197.734375 233.296875 197.378906 233.683594 197.046875 234.085938 C 196.710938 234.492188 196.398438 234.910156 196.105469 235.34375 C 195.8125 235.78125 195.542969 236.230469 195.292969 236.691406 C 195.046875 237.152344 194.820312 237.625 194.617188 238.109375 C 194.414062 238.59375 194.238281 239.085938 194.082031 239.585938 C 193.929688 240.089844 193.800781 240.597656 193.695312 241.109375 C 193.589844 241.625 193.511719 242.144531 193.460938 242.664062 C 193.40625 243.1875 193.378906 243.710938 193.375 244.234375 C 193.375 244.757812 193.398438 245.28125 193.449219 245.804688 C 193.496094 246.328125 193.570312 246.847656 193.671875 247.359375 C 193.773438 247.875 193.898438 248.382812 194.046875 248.886719 C 194.199219 249.390625 194.371094 249.882812 194.570312 250.367188 C 194.769531 250.855469 194.992188 251.328125 195.238281 251.792969 C 195.484375 252.257812 195.75 252.707031 196.039062 253.144531 C 196.328125 253.582031 196.640625 254.003906 196.96875 254.410156 C 197.300781 254.816406 197.652344 255.207031 198.019531 255.578125 C 198.390625 255.949219 198.773438 256.304688 199.179688 256.636719 C 199.582031 256.972656 200 257.285156 200.4375 257.578125 C 200.871094 257.871094 201.320312 258.144531 201.78125 258.390625 C 202.242188 258.640625 202.714844 258.867188 203.195312 259.070312 C 203.679688 259.269531 204.171875 259.449219 204.671875 259.605469 C 205.171875 259.757812 205.679688 259.886719 206.195312 259.992188 C 206.707031 260.09375 207.222656 260.171875 207.746094 260.226562 C 208.265625 260.28125 208.789062 260.308594 209.3125 260.308594 C 209.835938 260.308594 210.359375 260.285156 210.882812 260.238281 C 211.402344 260.1875 211.921875 260.113281 212.433594 260.011719 C 212.949219 259.910156 213.457031 259.785156 213.957031 259.632812 C 214.460938 259.484375 214.953125 259.308594 215.4375 259.109375 C 215.921875 258.910156 216.394531 258.6875 216.859375 258.441406 C 217.320312 258.195312 217.769531 257.929688 218.207031 257.636719 C 218.644531 257.347656 219.066406 257.035156 219.472656 256.703125 C 219.875 256.375 220.265625 256.023438 220.636719 255.652344 C 221.746094 254.550781 222.832031 253.421875 223.886719 252.265625 C 224.941406 251.109375 225.964844 249.929688 226.960938 248.722656 C 227.960938 247.515625 228.925781 246.285156 229.863281 245.03125 C 230.796875 243.773438 231.703125 242.5 232.574219 241.199219 C 233.449219 239.898438 234.289062 238.578125 235.097656 237.238281 C 235.90625 235.898438 236.679688 234.539062 237.421875 233.160156 C 238.160156 231.78125 238.867188 230.382812 239.539062 228.96875 C 240.210938 227.554688 240.847656 226.125 241.449219 224.679688 C 242.050781 223.234375 242.617188 221.777344 243.148438 220.300781 C 243.675781 218.828125 244.167969 217.34375 244.625 215.84375 C 245.082031 214.347656 245.5 212.839844 245.882812 211.320312 C 246.265625 209.800781 246.609375 208.273438 246.917969 206.738281 C 247.222656 205.203125 247.492188 203.660156 247.722656 202.113281 C 247.953125 200.5625 248.144531 199.007812 248.300781 197.449219 C 248.453125 195.894531 248.570312 194.332031 248.648438 192.765625 C 248.722656 191.203125 248.761719 189.636719 248.761719 188.070312 C 248.761719 186.507812 248.722656 184.941406 248.648438 183.375 C 248.570312 181.8125 248.453125 180.25 248.300781 178.691406 C 248.144531 177.132812 247.953125 175.582031 247.722656 174.03125 C 247.492188 172.484375 247.222656 170.941406 246.917969 169.40625 C 246.609375 167.871094 246.265625 166.34375 245.882812 164.824219 C 245.5 163.304688 245.082031 161.796875 244.625 160.300781 C 244.167969 158.800781 243.675781 157.316406 243.148438 155.84375 C 242.617188 154.367188 242.050781 152.910156 241.449219 151.464844 C 240.847656 150.019531 240.210938 148.589844 239.539062 147.175781 C 238.867188 145.761719 238.160156 144.363281 237.421875 142.984375 C 236.679688 141.605469 235.90625 140.246094 235.097656 138.90625 C 234.289062 137.5625 233.449219 136.242188 232.574219 134.945312 C 231.703125 133.644531 230.796875 132.367188 229.863281 131.113281 C 228.925781 129.859375 227.960938 128.628906 226.960938 127.421875 C 225.964844 126.214844 224.941406 125.035156 223.886719 123.878906 C 222.832031 122.722656 221.746094 121.59375 220.636719 120.492188 Z M 220.636719 120.492188"/><path stroke-linecap="round" transform="matrix(9.20218 -18.03598 18.03787 9.20314 196.517 337.497)" fill="none" d="M 0.499918 -0.0000196815 L 16.131684 0.0000521081" stroke="#FF1616"/></svg>